<svg width="16" height="16" viewBox="0 0 16 16" fill="none" xmlns="http://www.w3.org/2000/svg">
<g opacity="0.6">
<g clip-path="url(#clip0_197_25311)">
<path d="M4.4 11.6L5 10.9C4.3 10.4 3.6 9.6 2.9 8.5C4.5 6.1 6.2 4.9 8 4.9C8.8 4.9 9.6 5.1 10.4 5.6L11 5C10 4.4 9 4 8 4C5.8 4 3.8 5.4 2.1 8.1C2 8.2 2 8.4 2 8.5C2 8.6 2 8.8 2.1 8.9C2.8 10 3.6 10.9 4.4 11.6Z" fill="black" fill-opacity="0.85"/>
<path d="M5.8999 8.4999C5.8999 8.9999 5.9999 9.3999 6.2999 9.6999L6.8999 8.9999C6.8999 8.8999 6.7999 8.6999 6.7999 8.4999C6.7999 7.7999 7.2999 7.2999 7.9999 7.2999C8.1999 7.2999 8.3999 7.3999 8.4999 7.3999L9.1999 6.6999C8.8999 6.4999 8.3999 6.3999 7.9999 6.3999C6.7999 6.3999 5.8999 7.2999 5.8999 8.4999Z" fill="black" fill-opacity="0.85"/>
<path d="M9.2 8.5C9.2 9.2 8.7 9.7 8 9.7C7.9 9.7 7.8 9.7 7.7 9.6L7 10.4C7.3 10.5 7.6 10.6 8 10.6C9.2 10.6 10.1 9.7 10.1 8.5C10.1 8.1 10 7.8 9.9 7.5L9.2 8.2C9.2 8.3 9.2 8.4 9.2 8.5Z" fill="black" fill-opacity="0.65"/>
<path d="M13.9002 8.1001C13.2002 7.1001 12.6002 6.2001 11.8002 5.6001L11.2002 6.2001C11.9002 6.8001 12.5002 7.5001 13.1002 8.5001C11.5002 10.9001 9.8002 12.1001 8.0002 12.1001C7.3002 12.1001 6.6002 11.9001 5.9002 11.5001L5.2002 12.2001C6.1002 12.7001 7.0002 13.0001 8.0002 13.0001C10.2002 13.0001 12.2002 11.6001 13.9002 8.9001C14.0002 8.8001 14.0002 8.6001 14.0002 8.5001C14.0002 8.4001 14.0002 8.2001 13.9002 8.1001Z" fill="black" fill-opacity="0.65"/>
</g>
</g>
<defs>
<clipPath id="clip0_197_25311">
<rect width="12" height="9" fill="white" transform="translate(2 4)"/>
</clipPath>
</defs>
</svg>
